<svg xmlns="http://www.w3.org/2000/svg" viewBox="0 0 1600 1100" role="img" aria-label="helios cinematic crimson artwork">
<defs><radialGradient id="g" cx="70%" cy="42%" r="65%"><stop offset="0" stop-color="#8f0014" stop-opacity=".9"/><stop offset=".42" stop-color="#140106"/><stop offset="1" stop-color="#000"/></radialGradient><linearGradient id="r" x1="0" y1="0" x2="1" y2="1"><stop stop-color="#ff6670"/><stop offset=".45" stop-color="#ff1f2d"/><stop offset="1" stop-color="#8f0014"/></linearGradient><filter id="blur"><feGaussianBlur stdDeviation="18"/></filter></defs>
<rect width="1600" height="1100" fill="#000"/><rect x="36" y="36" width="1528" height="1028" fill="url(#g)" stroke="#7a1a29"/><g opacity=".22" stroke="#7a1a29"><path d="M180 80V1020"/><path d="M360 80V1020"/><path d="M540 80V1020"/><path d="M720 80V1020"/><path d="M900 80V1020"/><path d="M1080 80V1020"/><path d="M1260 80V1020"/><path d="M1440 80V1020"/><path d="M80 180H1520"/><path d="M80 360H1520"/><path d="M80 540H1520"/><path d="M80 720H1520"/><path d="M80 900H1520"/></g><ellipse cx="1120" cy="430" rx="330" ry="240" fill="#ff1f2d" opacity=".13" filter="url(#blur)"/><g fill="none"><path d="M130 660C280 620 320 350 480 430s230 300 390 60 230-270 390-90 170 210 250 80" stroke="url(#r)" stroke-width="5"/><path d="M130 665C280 625 320 355 480 435s230 300 390 60 230-270 390-90 170 210 250 80" stroke="#ff1f2d" stroke-width="28" opacity=".13"/></g><g stroke="#ff6670" fill="#050505"><circle cx="480" cy="430" r="20"/><circle cx="870" cy="490" r="20"/><circle cx="1260" cy="400" r="20"/></g><path d="M90 980H1510" stroke="#ff1f2d" opacity=".5"/><circle cx="1468" cy="982" r="7" fill="#ff6670"/></svg>