<svg xmlns="http://www.w3.org/2000/svg" viewBox="0 0 1600 1100" role="img" aria-label="texture cinematic crimson artwork">
<defs><radialGradient id="g" cx="70%" cy="42%" r="65%"><stop offset="0" stop-color="#8f0014" stop-opacity=".9"/><stop offset=".42" stop-color="#140106"/><stop offset="1" stop-color="#000"/></radialGradient><linearGradient id="r" x1="0" y1="0" x2="1" y2="1"><stop stop-color="#ff6670"/><stop offset=".45" stop-color="#ff1f2d"/><stop offset="1" stop-color="#8f0014"/></linearGradient><filter id="blur"><feGaussianBlur stdDeviation="18"/></filter></defs>
<rect width="1600" height="1100" fill="#000"/><rect x="36" y="36" width="1528" height="1028" fill="url(#g)" stroke="#7a1a29"/><g opacity=".22" stroke="#7a1a29"><path d="M180 80V1020"/><path d="M360 80V1020"/><path d="M540 80V1020"/><path d="M720 80V1020"/><path d="M900 80V1020"/><path d="M1080 80V1020"/><path d="M1260 80V1020"/><path d="M1440 80V1020"/><path d="M80 180H1520"/><path d="M80 360H1520"/><path d="M80 540H1520"/><path d="M80 720H1520"/><path d="M80 900H1520"/></g><ellipse cx="1120" cy="430" rx="330" ry="240" fill="#ff1f2d" opacity=".13" filter="url(#blur)"/><g transform="translate(170 180)"><rect width="510" height="600" fill="#050505" stroke="#7a1a29"/><g fill="#ff1f2d" opacity=".4"><rect x="25" y="30" width="42" height="42"/><circle cx="46" cy="109" r="12"/><circle cx="46" cy="167" r="12"/><rect x="25" y="204" width="42" height="42"/><circle cx="46" cy="283" r="12"/><circle cx="46" cy="341" r="12"/><rect x="25" y="378" width="42" height="42"/><circle cx="46" cy="457" r="12"/><circle cx="46" cy="515" r="12"/><circle cx="104" cy="51" r="12"/><circle cx="104" cy="109" r="12"/><rect x="83" y="146" width="42" height="42"/><circle cx="104" cy="225" r="12"/><circle cx="104" cy="283" r="12"/><rect x="83" y="320" width="42" height="42"/><circle cx="104" cy="399" r="12"/><circle cx="104" cy="457" r="12"/><rect x="83" y="494" width="42" height="42"/><circle cx="162" cy="51" r="12"/><rect x="141" y="88" width="42" height="42"/><circle cx="162" cy="167" r="12"/><circle cx="162" cy="225" r="12"/><rect x="141" y="262" width="42" height="42"/><circle cx="162" cy="341" r="12"/><circle cx="162" cy="399" r="12"/><rect x="141" y="436" width="42" height="42"/><circle cx="162" cy="515" r="12"/><rect x="199" y="30" width="42" height="42"/><circle cx="220" cy="109" r="12"/><circle cx="220" cy="167" r="12"/><rect x="199" y="204" width="42" height="42"/><circle cx="220" cy="283" r="12"/><circle cx="220" cy="341" r="12"/><rect x="199" y="378" width="42" height="42"/><circle cx="220" cy="457" r="12"/><circle cx="220" cy="515" r="12"/><circle cx="278" cy="51" r="12"/><circle cx="278" cy="109" r="12"/><rect x="257" y="146" width="42" height="42"/><circle cx="278" cy="225" r="12"/><circle cx="278" cy="283" r="12"/><rect x="257" y="320" width="42" height="42"/><circle cx="278" cy="399" r="12"/><circle cx="278" cy="457" r="12"/><rect x="257" y="494" width="42" height="42"/><circle cx="336" cy="51" r="12"/><rect x="315" y="88" width="42" height="42"/><circle cx="336" cy="167" r="12"/><circle cx="336" cy="225" r="12"/><rect x="315" y="262" width="42" height="42"/><circle cx="336" cy="341" r="12"/><circle cx="336" cy="399" r="12"/><rect x="315" y="436" width="42" height="42"/><circle cx="336" cy="515" r="12"/><rect x="373" y="30" width="42" height="42"/><circle cx="394" cy="109" r="12"/><circle cx="394" cy="167" r="12"/><rect x="373" y="204" width="42" height="42"/><circle cx="394" cy="283" r="12"/><circle cx="394" cy="341" r="12"/><rect x="373" y="378" width="42" height="42"/><circle cx="394" cy="457" r="12"/><circle cx="394" cy="515" r="12"/><circle cx="452" cy="51" r="12"/><circle cx="452" cy="109" r="12"/><rect x="431" y="146" width="42" height="42"/><circle cx="452" cy="225" r="12"/><circle cx="452" cy="283" r="12"/><rect x="431" y="320" width="42" height="42"/><circle cx="452" cy="399" r="12"/><circle cx="452" cy="457" r="12"/><rect x="431" y="494" width="42" height="42"/></g></g><g transform="translate(860 255)" fill="none" stroke="url(#r)" stroke-width="3"><circle cx="220" cy="220" r="200"/><circle cx="220" cy="220" r="145"/><circle cx="220" cy="220" r="88"/><path d="M20 220h400M220 20v400M78 78l284 284M362 78 78 362"/></g><path d="M90 980H1510" stroke="#ff1f2d" opacity=".5"/><circle cx="1468" cy="982" r="7" fill="#ff6670"/></svg>